<svg xmlns="http://www.w3.org/2000/svg" data-name="Layer 1" viewBox="0 0 76.24 10.3">
	<path d="M14.4 10.3c-3.5 0-5.1-2.6-5.1-5.1S10.9 0 14.4 0c1.4 0 2.7.5 3.6 1.4s1.5 2.3 1.5 3.8c-.1 2.6-1.7 5.1-5.1 5.1Zm0-7.7c-.7 0-1.2.2-1.7.6-.4.5-.7 1.3-.7 2.1 0 .5.3 2.4 2.4 2.4s2.3-1.9 2.3-2.5c0-.8-.2-1.5-.7-2-.4-.3-.9-.6-1.6-.6Zm-9.2 7.7C1.6 10.3 0 7.8 0 5.2c0-1.4.5-2.8 1.5-3.7C2.4.6 3.7.1 5.2.1c1.4 0 2.6.5 3.6 1.5l.4.4-1.9 1.8-.3-.4c-.5-.4-1.1-.7-1.8-.7s-1.3.2-1.8.7c-.4.4-.7 1.1-.7 1.8 0 .6.2 2.5 2.5 2.5.7 0 1.4-.3 1.8-.8l.4-.4 1.9 1.9-.4.5c-.9.9-2.2 1.4-3.7 1.4Zm39.5-.2-2.6-2.9h-.8v2.9h-2.7V.2h4.7C45.8.2 47 2 47 3.7c0 1.4-.6 2.5-1.8 3l3 3.4h-3.5Zm-1.4-5.5c.9 0 1-.6 1-.9 0-.2-.1-.9-1-.9h-2v1.7h2v.1Zm-13.4 5.5V.2h7.7v2.7h-4.9v.9h4.8v2.6h-4.8v.9h4.9V10h-7.7v.1Zm-9.7 0V.2h4c3.4 0 4.9 2.4 4.9 4.9 0 1.4-.5 2.8-1.4 3.7-.9.9-2.1 1.4-3.6 1.4h-3.9v-.1Zm4-2.7c.7 0 1.2-.2 1.6-.6s.6-1 .6-1.7c0-.5-.2-2.2-2.2-2.2h-1.3v4.6h1.3v-.1ZM57.73 5.23c0 2.49-1.62 4.87-4.76 4.87s-4.76-2.38-4.76-4.98S49.82.25 52.96.25s4.87 2.38 4.76 4.98Zm-8.88-.11c0 2.17 1.41 4.22 4.11 4.22s4.11-2.06 4.11-4.22S55.66.9 52.96.9c-2.71 0-4.11 2.06-4.11 4.22ZM59.67 4.9h5.52v.65h-5.52v4.33h-.76V.36h6.39v.76h-5.63v3.79ZM75.37 2.2C74.72 1.12 73.53.9 72.45.9s-2.92.43-2.92 1.95c0 1.19 1.3 1.52 2.92 1.84 1.84.32 3.79.65 3.79 2.71 0 2.17-2.17 2.71-3.79 2.71-1.52 0-3.14-.65-3.9-2.06l.65-.32c.54 1.19 2.06 1.73 3.25 1.73s3.03-.32 3.03-2.06c0-1.41-1.52-1.73-3.14-2.06-1.73-.32-3.57-.65-3.57-2.49 0-2.06 2.06-2.6 3.57-2.6 1.41 0 2.6.22 3.46 1.62l-.43.32ZM67.36 2.96V.36h-.76v2.27l.76.33zM66.6 3.28v6.6h.76V3.5l-.76-.22z"/>
</svg>